<?xml version="1.0" encoding="utf-8"?>
<!-- Generator: Adobe Illustrator 26.3.1, SVG Export Plug-In . SVG Version: 6.00 Build 0)  -->
<svg version="1.1" id="Layer_1" xmlns="http://www.w3.org/2000/svg" xmlns:xlink="http://www.w3.org/1999/xlink" x="0px" y="0px"
	 viewBox="0 0 512 512" style="enable-background:new 0 0 512 512;" xml:space="preserve">
<style type="text/css">
	.st0{fill:#3ABA96;}
	.st1{fill:#FFFFFF;}
</style>
<path class="st0" d="M140.8,450.2c-12.2,0-24.5,1.3-36.5-0.3c-27.1-3.5-43.1-22.6-43.4-50.1c-0.2-18.8-0.2-37.5,0.1-56.3
	c0.1-4.7-1.4-8-4.8-11.2c-13.6-13.3-27-26.7-40.3-40.2c-21.2-21.6-21.1-51.1,0.2-72.5c13.1-13.1,26.4-26.1,39.8-38.8
	c3.5-3.4,5.2-6.7,5.1-11.7c-0.3-18.3-0.2-36.6-0.1-54.9c0.1-32.6,20.8-53.2,53.5-53.3c18.5,0,37.1,0.2,55.6-0.2
	c3.4-0.1,7.5-1.8,9.9-4.1c13.1-12.8,25.7-26,38.5-39.1c22.4-23,52.1-23.2,74.9-0.4c13.3,13.2,26.4,26.7,39.9,39.7
	c2.4,2.3,6.5,4,9.9,4c18.1,0.4,36.2,0.2,54.2,0.2c33.2,0,53.7,20.6,53.7,53.8c0,18.3,0.1,36.6-0.1,54.9c0,4.4,1.2,7.5,4.4,10.6
	c15.1,14.6,30.4,29,44.6,44.5c17.6,19.1,15.5,48.2-3.6,67.3c-13.3,13.3-26.4,26.6-39.9,39.6c-3.9,3.8-5.6,7.5-5.5,13
	c0.3,17.6,0.1,35.3,0.1,52.9c-0.1,33.1-20.6,53.6-53.8,53.6c-18.1,0-36.2-0.2-54.2,0.2c-3.4,0.1-7.5,1.8-9.9,4.1
	c-13.5,13-26.6,26.4-39.9,39.7c-22.9,22.8-52,22.7-74.8-0.5c-12.9-13-25.5-26.3-38.5-39.1c-2.4-2.3-6.4-4-9.8-4.2
	c-9.7-0.6-19.4-0.2-29.1-0.2C140.8,450.7,140.8,450.5,140.8,450.2z"/>
<path class="st1" d="M349,181.9c12.6,11.3,13.7,30.9,2.2,43.7l-92.8,103.1c-5.7,6.2-13.7,9.9-22.2,9c-8.5,1.4-16.6-1.9-22.7-9
	L162,277.2c-12.1-11-12.1-30.5,0-42.7c12.1-12,31.7-12,43.7,0l28.5,28.5l71-78.9C316.6,171.5,336.2,170.5,349,181.9L349,181.9z"/>
</svg>
