<?xml version="1.0" encoding="utf-8"?>
<!-- Generator: Adobe Illustrator 26.3.1, SVG Export Plug-In . SVG Version: 6.00 Build 0)  -->
<svg version="1.1" id="Layer_1" xmlns="http://www.w3.org/2000/svg" xmlns:xlink="http://www.w3.org/1999/xlink" x="0px" y="0px"
	 viewBox="0 0 448 512" style="enable-background:new 0 0 448 512;" xml:space="preserve">
<style type="text/css">
	.st0{fill:#1D1934;}
</style>
<path class="st0" d="M384,32c35.3,0,64,28.7,64,64v320c0,35.3-28.7,64-64,64H64c-35.3,0-64-28.7-64-64V96c0-35.3,28.6-64,64-64H384z
	 M325.8,139.7c-15.7-15.6-41-15.6-56.6,0l-21.4,21.4l70.9,71l21.4-21.4c15.7-15.7,15.7-41,0-56.6L325.8,139.7z M111.5,303.8
	l-15,59.3c-1.4,6.3,0.2,12.1,4.2,16.1c4,3.9,9.7,5.5,15.2,4.2l60.1-15.1c5.6-1.4,10.8-4.3,14.9-8.4l105.2-105.2l-71-70.9
	L119.9,288.1C115.8,293.1,112.9,298.2,111.5,303.8z"/>
</svg>
